<svg width="19" height="19" viewBox="0 0 19 19" fill="none" xmlns="http://www.w3.org/2000/svg">
<path d="M5.66785 14.0524V15.6851" stroke="#6D737A" stroke-width="1.08848" stroke-linecap="round" stroke-linejoin="round"/>
<path d="M13.2872 14.0524V15.6851" stroke="#6D737A" stroke-width="1.08848" stroke-linecap="round" stroke-linejoin="round"/>
<path d="M4.57935 8.06571V4.52814C4.57935 4.16729 4.72269 3.82122 4.97786 3.56605C5.23302 3.31089 5.57909 3.16754 5.93995 3.16754C6.3008 3.16754 6.64688 3.31089 6.90204 3.56605C7.1572 3.82122 7.30055 4.16729 7.30055 4.52814" stroke="#6D737A" stroke-width="1.08848" stroke-linecap="round" stroke-linejoin="round"/>
<path d="M14.3757 7.52148H10.0217V10.7869H14.3757V7.52148Z" stroke="#6D737A" stroke-width="1.08848" stroke-linecap="round" stroke-linejoin="round"/>
<path d="M14.3757 8.06573H16.5527C16.697 8.06573 16.8354 8.12307 16.9375 8.22514C17.0396 8.3272 17.0969 8.46563 17.0969 8.60998V10.7869C17.0969 11.653 16.7529 12.4836 16.1405 13.096C15.5281 13.7084 14.6975 14.0524 13.8315 14.0524H5.1236C4.25755 14.0524 3.42697 13.7084 2.81458 13.096C2.20219 12.4836 1.85815 11.653 1.85815 10.7869V8.60998C1.85815 8.46563 1.91549 8.3272 2.01756 8.22514C2.11962 8.12307 2.25805 8.06573 2.4024 8.06573H10.0218" stroke="#6D737A" stroke-width="1.08848" stroke-linecap="round" stroke-linejoin="round"/>
</svg>
