<svg width="19" height="18" viewBox="0 0 19 18" fill="none" xmlns="http://www.w3.org/2000/svg">
<path d="M5.66783 13.0618V14.6945" stroke="#6D737A" stroke-width="1.08848" stroke-linecap="round" stroke-linejoin="round"/>
<path d="M13.2872 13.0618V14.6945" stroke="#6D737A" stroke-width="1.08848" stroke-linecap="round" stroke-linejoin="round"/>
<path d="M4.57934 7.07511V3.53754C4.57934 3.17669 4.72269 2.83062 4.97785 2.57545C5.23302 2.32029 5.57909 2.17694 5.93995 2.17694C6.3008 2.17694 6.64687 2.32029 6.90204 2.57545C7.1572 2.83062 7.30055 3.17669 7.30055 3.53754" stroke="#6D737A" stroke-width="1.08848" stroke-linecap="round" stroke-linejoin="round"/>
<path d="M14.3757 6.53088H10.0218V9.79633H14.3757V6.53088Z" stroke="#6D737A" stroke-width="1.08848" stroke-linecap="round" stroke-linejoin="round"/>
<path d="M14.3757 7.07513H16.5527C16.697 7.07513 16.8354 7.13247 16.9375 7.23454C17.0396 7.3366 17.0969 7.47503 17.0969 7.61938V9.79634C17.0969 10.6624 16.7529 11.493 16.1405 12.1054C15.5281 12.7178 14.6975 13.0618 13.8314 13.0618H5.12358C4.25753 13.0618 3.42695 12.7178 2.81456 12.1054C2.20217 11.493 1.85814 10.6624 1.85814 9.79634V7.61938C1.85814 7.47503 1.91547 7.3366 2.01754 7.23454C2.1196 7.13247 2.25803 7.07513 2.40238 7.07513H10.0218" stroke="#6D737A" stroke-width="1.08848" stroke-linecap="round" stroke-linejoin="round"/>
</svg>
