<svg width="268" height="78" viewBox="0 0 268 78" fill="none" xmlns="http://www.w3.org/2000/svg">
<g clip-path="url(#clip0_1_1314)">
<path d="M153.354 29.7448H153.319C152.842 29.7448 152.382 29.6324 152.034 29.4328L132.261 18.0739C131.494 17.6331 131.45 16.8912 132.159 16.4177C132.87 15.9425 134.068 15.9152 134.832 16.3542L154.402 27.5953C154.912 27.8057 155.246 28.1649 155.246 28.5712C155.246 29.2206 154.4 29.7448 153.354 29.7448ZM115.343 7.93204C114.883 7.93204 114.421 7.82864 114.058 7.62004C108.399 4.37125 104.423 2.08567 104.423 2.08567C103.911 1.79181 103.703 1.34739 103.879 0.928367C104.054 0.509343 104.59 0.186459 105.269 0.084878L105.624 0.0322732C106.631 -0.116471 107.644 0.264459 107.898 0.884831C109.38 1.73558 112.574 3.5713 116.631 5.90041C117.398 6.3412 117.442 7.08311 116.734 7.55655C116.359 7.80506 115.852 7.93204 115.343 7.93204Z" fill="#1E2640"/>
<path d="M143.866 60.978C142.888 60.978 142.06 60.5118 141.981 59.8987C141.949 59.6447 142.048 59.4034 142.244 59.2021V28.5644C142.244 27.9168 143.09 27.3926 144.135 27.3926C145.181 27.3926 146.027 27.9168 146.027 28.5644V59.7934C146.027 60.4047 145.268 60.9127 144.285 60.9616L144.015 60.9743C143.966 60.9761 143.916 60.978 143.866 60.978Z" fill="#1E2640"/>
<path d="M135.362 16.9184C134.319 16.9184 133.47 16.396 133.47 15.7484L133.435 5.41433C132.636 5.26921 132.062 4.80847 132.077 4.26791C132.097 3.62033 132.967 3.09972 134.003 3.11786L135.359 3.13237C136.389 3.14326 137.215 3.66386 137.215 4.30237L137.253 15.743C137.256 16.3906 136.41 16.9166 135.365 16.9184C135.365 16.9184 135.365 16.9184 135.362 16.9184Z" fill="#1E2640"/>
<path d="M133.13 17.6739C133.13 18.116 133.418 18.4773 133.802 18.7152C134.189 18.9554 134.709 19.0958 135.271 19.0958C135.832 19.0958 136.353 18.9554 136.741 18.7153C137.126 18.4776 137.415 18.1164 137.415 17.6739V4.15817C137.415 3.71612 137.127 3.35483 136.743 3.11691C136.355 2.87667 135.835 2.73636 135.274 2.73636H121.473C120.912 2.73636 120.392 2.87667 120.004 3.11691C119.62 3.35483 119.332 3.71612 119.332 4.15817V9.6998C119.332 10.1418 119.62 10.5031 120.004 10.7411C120.392 10.9813 120.912 11.1216 121.473 11.1216C122.035 11.1216 122.555 10.9813 122.942 10.7411C123.326 10.5031 123.614 10.1418 123.614 9.6998V5.57999H133.13V17.6739Z" fill="#1E2640" stroke="#1E2640" stroke-width="0.5"/>
<path d="M95.3285 59.799V36.1483H115.529V59.8008C115.529 60.2429 115.817 60.6041 116.201 60.8421C116.589 61.0823 117.109 61.2226 117.67 61.2226C118.232 61.2226 118.752 61.0818 119.14 60.8414C119.524 60.6034 119.813 60.2426 119.815 59.8019V59.8008V34.7265C119.815 34.2845 119.527 33.9232 119.143 33.6853C118.755 33.445 118.235 33.3047 117.673 33.3047H93.1873C92.6259 33.3047 92.1059 33.445 91.7181 33.6853C91.3342 33.9232 91.0461 34.2845 91.0461 34.7265V59.799C91.0461 60.241 91.3342 60.6023 91.7181 60.8403C92.1059 61.0805 92.6259 61.2208 93.1873 61.2208C93.7488 61.2208 94.2688 61.0805 94.6565 60.8403C95.0405 60.6023 95.3285 60.241 95.3285 59.799Z" fill="#1E2640" stroke="#1E2640" stroke-width="0.5"/>
<path d="M55.7375 27.4899L55.7377 27.4897L104.028 0.140822C104.436 -0.0906795 104.941 -0.200156 105.434 -0.199182C105.928 -0.198208 106.432 -0.0868112 106.837 0.147011L106.837 0.146944L55.7375 27.4899ZM55.7375 27.4899C55.3056 27.7351 55.0282 28.0934 54.9982 28.5021C54.9679 28.9155 55.1967 29.2972 55.6008 29.5705C56.024 29.8574 56.5887 29.9943 57.1373 29.9943C57.6278 29.9943 58.1288 29.8858 58.5366 29.6555L58.5369 29.6553L105.418 3.104L151.628 29.6491L151.629 29.6493C152.06 29.8959 152.597 30.0055 153.116 29.9934C153.634 29.9812 154.16 29.8469 154.565 29.5767L154.426 29.3688L154.565 29.5767C154.97 29.306 155.203 28.9264 155.177 28.5133C155.152 28.1039 154.879 27.7435 154.448 27.4959L154.323 27.7127L154.448 27.4959L106.837 0.147166L55.7375 27.4899Z" fill="#1E2640" stroke="#4A60A1" stroke-width="0.5"/>
<path d="M66.201 61.2247H144.153L146.041 59.8011H146.291V59.8V25.2453C146.291 24.8032 146.003 24.4419 145.619 24.204C145.232 23.9638 144.712 23.8235 144.15 23.8235C143.589 23.8235 143.069 23.9638 142.681 24.204C142.297 24.4419 142.009 24.8032 142.009 25.2453V58.3793H68.3422V24.1914C68.3422 23.7493 68.0542 23.388 67.6702 23.1501C67.2825 22.9099 66.7625 22.7696 66.201 22.7696C65.6395 22.7696 65.1195 22.9099 64.7318 23.1501C64.3478 23.388 64.0598 23.7493 64.0598 24.1914V59.8029C64.0598 60.245 64.3478 60.6063 64.7318 60.8442C65.1195 61.0844 65.6395 61.2247 66.201 61.2247Z" fill="#1E2640" stroke="#4A60A1" stroke-width="0.5"/>
</g>
<defs>
<clipPath id="clip0_1_1314">
<rect width="268" height="78" fill="white"/>
</clipPath>
</defs>
</svg>
