<svg width="16" height="16" viewBox="0 0 16 16" fill="none" xmlns="http://www.w3.org/2000/svg">
<path d="M7.81469 13.1827C7.81469 13.1827 2.14551 10.0079 2.14551 6.15287C2.14551 5.47137 2.38163 4.81092 2.81369 4.28389C3.24575 3.75686 3.84707 3.3958 4.51534 3.26215C5.1836 3.12849 5.87753 3.2305 6.47907 3.55082C7.0806 3.87113 7.55257 4.38996 7.81469 5.01904V5.01904C8.0768 4.38996 8.54878 3.87113 9.15031 3.55082C9.75184 3.2305 10.4458 3.12849 11.114 3.26215C11.7823 3.3958 12.3836 3.75686 12.8157 4.28389C13.2477 4.81092 13.4839 5.47137 13.4839 6.15287C13.4839 10.0079 7.81469 13.1827 7.81469 13.1827Z" stroke="#4A60A1" stroke-width="0.936687" stroke-linecap="round" stroke-linejoin="round"/>
</svg>
