<svg width="16" height="16" viewBox="0 0 16 16" fill="none" xmlns="http://www.w3.org/2000/svg">
<path d="M7.81444 13.1921C7.81444 13.1921 2.14526 10.0174 2.14526 6.16233C2.14526 5.48083 2.38138 4.82038 2.81345 4.29335C3.24551 3.76632 3.84683 3.40526 4.51509 3.27161C5.18336 3.13795 5.87729 3.23996 6.47882 3.56028C7.08035 3.88059 7.55233 4.39942 7.81444 5.0285V5.0285C8.07656 4.39942 8.54853 3.88059 9.15007 3.56028C9.7516 3.23996 10.4455 3.13795 11.1138 3.27161C11.7821 3.40526 12.3834 3.76632 12.8154 4.29335C13.2475 4.82038 13.4836 5.48083 13.4836 6.16233C13.4836 10.0174 7.81444 13.1921 7.81444 13.1921Z" stroke="#4A60A1" stroke-width="0.936687" stroke-linecap="round" stroke-linejoin="round"/>
</svg>
