<svg width="16" height="16" viewBox="0 0 16 16" fill="none" xmlns="http://www.w3.org/2000/svg">
<path d="M7.81444 13.1827C7.81444 13.1827 2.14526 10.0079 2.14526 6.15287C2.14526 5.47137 2.38138 4.81092 2.81345 4.28389C3.24551 3.75686 3.84683 3.3958 4.51509 3.26215C5.18336 3.12849 5.87729 3.2305 6.47882 3.55082C7.08035 3.87113 7.55233 4.38996 7.81444 5.01904V5.01904C8.07656 4.38996 8.54853 3.87113 9.15007 3.55082C9.7516 3.2305 10.4455 3.12849 11.1138 3.26215C11.7821 3.3958 12.3834 3.75686 12.8154 4.28389C13.2475 4.81092 13.4836 5.47137 13.4836 6.15287C13.4836 10.0079 7.81444 13.1827 7.81444 13.1827Z" stroke="#4A60A1" stroke-width="0.936687" stroke-linecap="round" stroke-linejoin="round"/>
</svg>
