<svg width="16" height="16" viewBox="0 0 16 16" fill="none" xmlns="http://www.w3.org/2000/svg">
<path d="M7.81469 13.1921C7.81469 13.1921 2.14551 10.0173 2.14551 6.16227C2.14551 5.48077 2.38163 4.82032 2.81369 4.29329C3.24575 3.76626 3.84707 3.4052 4.51534 3.27155C5.1836 3.13789 5.87753 3.2399 6.47907 3.56021C7.0806 3.88053 7.55257 4.39936 7.81469 5.02844V5.02844C8.0768 4.39936 8.54878 3.88053 9.15031 3.56021C9.75184 3.2399 10.4458 3.13789 11.114 3.27155C11.7823 3.4052 12.3836 3.76626 12.8157 4.29329C13.2477 4.82032 13.4839 5.48077 13.4839 6.16227C13.4839 10.0173 7.81469 13.1921 7.81469 13.1921Z" stroke="#4A60A1" stroke-width="0.936687" stroke-linecap="round" stroke-linejoin="round"/>
</svg>
