<svg width="16" height="16" viewBox="0 0 16 16" fill="none" xmlns="http://www.w3.org/2000/svg">
<path d="M7.81463 13.1921C7.81463 13.1921 2.14545 10.0173 2.14545 6.16227C2.14545 5.48077 2.38156 4.82032 2.81363 4.29329C3.24569 3.76626 3.84701 3.4052 4.51528 3.27155C5.18354 3.13789 5.87747 3.2399 6.479 3.56021C7.08054 3.88053 7.55251 4.39936 7.81463 5.02844V5.02844C8.07674 4.39936 8.54872 3.88053 9.15025 3.56021C9.75178 3.2399 10.4457 3.13789 11.114 3.27155C11.7822 3.4052 12.3836 3.76626 12.8156 4.29329C13.2477 4.82032 13.4838 5.48077 13.4838 6.16227C13.4838 10.0173 7.81463 13.1921 7.81463 13.1921Z" stroke="#4A60A1" stroke-width="0.936687" stroke-linecap="round" stroke-linejoin="round"/>
</svg>
