<svg width="268" height="78" viewBox="0 0 268 78" fill="none" xmlns="http://www.w3.org/2000/svg">
<path d="M236.42 38.2565H236.345C235.329 38.2565 234.35 38.1441 233.609 37.9445L191.514 26.5856C189.881 26.1448 189.788 25.4029 191.296 24.9294C192.81 24.4542 195.36 24.427 196.986 24.8659L238.651 36.107C239.735 36.3174 240.446 36.6766 240.446 37.0829C240.446 37.7323 238.645 38.2565 236.42 38.2565ZM155.496 16.4438C154.518 16.4438 153.533 16.3404 152.76 16.1318C140.712 12.883 132.249 10.5974 132.249 10.5974C131.158 10.3035 130.715 9.85911 131.089 9.44009C131.463 9.02106 132.604 8.69818 134.05 8.5966L134.804 8.54399C136.948 8.39525 139.104 8.77618 139.647 9.39655C142.8 10.2473 149.6 12.083 158.238 14.4121C159.871 14.8529 159.965 15.5948 158.457 16.0683C157.659 16.3168 156.581 16.4438 155.496 16.4438Z" fill="#4A60A1"/>
<path d="M216.22 69.4898C214.138 69.4898 212.375 69.0236 212.206 68.4105C212.138 68.1565 212.35 67.9153 212.767 67.7139V37.0762C212.767 36.4287 214.568 35.9044 216.793 35.9044C219.018 35.9044 220.82 36.4287 220.82 37.0762V68.3053C220.82 68.9166 219.205 69.4245 217.111 69.4734L216.538 69.4861C216.432 69.488 216.326 69.4898 216.22 69.4898Z" fill="#4A60A1"/>
<path d="M198.114 25.4302C195.896 25.4302 194.088 24.9078 194.088 24.2602L194.013 13.9261C192.312 13.781 191.09 13.3203 191.121 12.7797C191.165 12.1321 193.016 11.6115 195.222 11.6297L198.108 11.6442C200.302 11.6551 202.06 12.1757 202.06 12.8142L202.141 24.2548C202.147 24.9024 200.346 25.4284 198.121 25.4302C198.121 25.4302 198.121 25.4302 198.114 25.4302Z" fill="#4A60A1"/>
<path d="M193.645 26.1858C193.645 26.4722 193.843 26.6918 194.069 26.848C194.304 27.0095 194.627 27.1449 195.004 27.2545C195.761 27.4748 196.792 27.6076 197.921 27.6076C199.05 27.6076 200.083 27.4748 200.841 27.2546C201.219 27.1449 201.543 27.0096 201.778 26.8481C202.005 26.6922 202.204 26.4726 202.204 26.1858V12.67C202.204 12.3835 202.006 12.1639 201.779 12.0078C201.545 11.8463 201.222 11.7109 200.845 11.6012C200.088 11.3809 199.057 11.2482 197.927 11.2482H168.547C167.418 11.2482 166.387 11.3809 165.63 11.6012C165.253 11.7109 164.93 11.8463 164.695 12.0078C164.468 12.1639 164.271 12.3835 164.271 12.67V18.2116C164.271 18.4981 164.468 18.7176 164.695 18.8738C164.93 19.0353 165.253 19.1707 165.63 19.2804C166.387 19.5007 167.418 19.6334 168.547 19.6334C169.676 19.6334 170.708 19.5007 171.464 19.2804C171.841 19.1707 172.164 19.0353 172.399 18.8738C172.626 18.7176 172.823 18.4981 172.823 18.2116V14.0918H193.645V26.1858Z" fill="#1E2640" stroke="#1E2640" stroke-width="0.5"/>
<path d="M28.5315 38.1134C29.3561 38.3761 30.4747 38.5061 31.5803 38.5061C32.5672 38.5061 33.5622 38.4033 34.3618 38.1912L34.362 38.1912L134.367 11.5868L232.945 38.1855L232.945 38.1856C233.79 38.4127 234.858 38.5167 235.903 38.5052C236.946 38.4937 237.987 38.3666 238.776 38.1192L238.701 37.8806L238.776 38.1192C239.167 37.9964 239.477 37.8497 239.689 37.6789C239.9 37.509 240.053 37.2807 240.018 37.0081C239.984 36.7496 239.791 36.5465 239.553 36.3927C239.309 36.2344 238.969 36.0969 238.548 35.9831L238.483 36.2245L238.548 35.9831L137.188 8.63423C135.612 8.20723 133.193 8.20553 131.605 8.6285C131.605 8.6285 131.605 8.62851 131.605 8.62852L28.7987 35.9775L28.7985 35.9775C28.3755 36.0903 28.034 36.2269 27.7863 36.3841C27.5459 36.5367 27.3501 36.7374 27.3102 36.9937C27.2676 37.2666 27.415 37.4976 27.6244 37.6698C27.8338 37.842 28.1421 37.9897 28.5315 38.1134ZM28.5315 38.1134L28.6074 37.8752L28.5317 38.1135C28.5317 38.1135 28.5316 38.1134 28.5315 38.1134Z" fill="#4A60A1" stroke="#4A60A1" stroke-width="0.5"/>
<path d="M50.8764 69.7365H216.831L220.851 68.3129H221.101V68.3124C221.101 68.3118 221.101 68.3111 221.101 68.3105L221.101 33.7571C221.101 33.4706 220.903 33.2511 220.676 33.0949C220.442 32.9334 220.119 32.798 219.742 32.6883C218.985 32.468 217.954 32.3353 216.825 32.3353C215.695 32.3353 214.664 32.468 213.907 32.6883C213.53 32.798 213.207 32.9334 212.973 33.0949C212.746 33.2511 212.548 33.4706 212.548 33.7571V66.8911H55.1527V32.7032C55.1527 32.4167 54.955 32.1972 54.7282 32.041C54.4937 31.8795 54.1706 31.7441 53.7938 31.6344C53.0369 31.4141 52.0057 31.2814 50.8764 31.2814C49.7472 31.2814 48.716 31.4141 47.9591 31.6344C47.5823 31.7441 47.2592 31.8795 47.0246 32.041C46.7978 32.1972 46.6002 32.4167 46.6002 32.7032V68.3147C46.6002 68.6012 46.7978 68.8208 47.0246 68.9769C47.2592 69.1384 47.5823 69.2738 47.9591 69.3835C48.716 69.6038 49.7472 69.7365 50.8764 69.7365Z" fill="#4A60A1" stroke="#4A60A1" stroke-width="0.5"/>
<path d="M174.157 40.6505H93.843C91.8268 40.6505 90.1923 41.1262 90.1923 41.713V58.713C90.1923 59.2998 91.8268 59.7755 93.843 59.7755H174.157C176.173 59.7755 177.808 59.2998 177.808 58.713V41.713C177.808 41.1262 176.173 40.6505 174.157 40.6505Z" stroke="#1E2640" stroke-width="2.5" stroke-linecap="round" stroke-linejoin="round"/>
<path d="M152.253 40.6505V38.5255C152.253 37.9619 151.484 37.4214 150.115 37.0229C148.745 36.6244 146.888 36.4005 144.952 36.4005H123.048C121.112 36.4005 119.255 36.6244 117.885 37.0229C116.516 37.4214 115.747 37.9619 115.747 38.5255V40.6505" stroke="#1E2640" stroke-width="2.5" stroke-linecap="round" stroke-linejoin="round"/>
<path d="M177.808 47.8615C164.493 50.1026 149.381 51.2801 134 51.2747C118.616 51.2864 103.498 50.1085 90.1923 47.8615" stroke="#1E2640" stroke-width="2.5" stroke-linecap="round" stroke-linejoin="round"/>
<path d="M128.524 47.0255H139.476" stroke="#1E2640" stroke-width="2.5" stroke-linecap="round" stroke-linejoin="round"/>
</svg>
