<svg width="280" height="78" viewBox="0 0 280 78" fill="none" xmlns="http://www.w3.org/2000/svg">
<path d="M126.896 38.2565H126.86C126.383 38.2565 125.924 38.1441 125.575 37.9445L105.803 26.5856C105.035 26.1448 104.992 25.4029 105.7 24.9294C106.411 24.4542 107.609 24.427 108.373 24.8659L127.944 36.107C128.453 36.3174 128.787 36.6766 128.787 37.0829C128.787 37.7323 127.941 38.2565 126.896 38.2565ZM88.8842 16.4438C88.4245 16.4438 87.962 16.3404 87.599 16.1318C81.94 12.883 77.9644 10.5974 77.9644 10.5974C77.452 10.3035 77.2442 9.85911 77.4198 9.44009C77.5955 9.02106 78.1312 8.69818 78.8104 8.5966L79.1647 8.54399C80.1717 8.39525 81.1847 8.77618 81.4394 9.39655C82.9207 10.2473 86.1147 12.083 90.1723 14.4121C90.9393 14.8529 90.9832 15.5948 90.2747 16.0683C89.9 16.3168 89.3935 16.4438 88.8842 16.4438Z" fill="#4A60A1"/>
<path d="M117.407 69.4898C116.43 69.4898 115.601 69.0236 115.522 68.4105C115.49 68.1565 115.589 67.9153 115.786 67.7139V37.0762C115.786 36.4287 116.632 35.9044 117.677 35.9044C118.722 35.9044 119.568 36.4287 119.568 37.0762V68.3053C119.568 68.9166 118.81 69.4245 117.826 69.4734L117.557 69.4861C117.507 69.488 117.457 69.4898 117.407 69.4898Z" fill="#4A60A1"/>
<path d="M108.903 25.4302C107.861 25.4302 107.012 24.9078 107.012 24.2602L106.976 13.9261C106.177 13.781 105.603 13.3203 105.618 12.7797C105.639 12.1321 106.508 11.6115 107.544 11.6297L108.9 11.6442C109.93 11.6551 110.756 12.1757 110.756 12.8142L110.794 24.2548C110.797 24.9024 109.951 25.4284 108.906 25.4302C108.906 25.4302 108.906 25.4302 108.903 25.4302Z" fill="#4A60A1"/>
<path d="M106.671 26.1858C106.671 26.6278 106.959 26.9891 107.343 27.227C107.731 27.4673 108.251 27.6076 108.812 27.6076C109.373 27.6076 109.894 27.4673 110.282 27.2271C110.667 26.9894 110.956 26.6282 110.956 26.1858V12.67C110.956 12.2279 110.668 11.8666 110.284 11.6287C109.896 11.3885 109.376 11.2482 108.815 11.2482H95.0144C94.453 11.2482 93.9329 11.3885 93.5452 11.6287C93.1612 11.8666 92.8732 12.2279 92.8732 12.67V18.2116C92.8732 18.6537 93.1612 19.015 93.5452 19.2529C93.9329 19.4931 94.453 19.6334 95.0144 19.6334C95.5759 19.6334 96.0959 19.4931 96.4836 19.2529C96.8676 19.015 97.1556 18.6537 97.1556 18.2116V14.0918H106.671V26.1858Z" fill="#1E2640" stroke="#1E2640" stroke-width="0.5"/>
<path d="M77.5687 8.65263L29.2788 36.0015L29.2786 36.0017C28.8467 36.2469 28.5693 36.6052 28.5394 37.0139C28.5091 37.4273 28.7378 37.809 29.142 38.0823C29.5652 38.3692 30.1299 38.5061 30.6784 38.5061C31.1689 38.5061 31.6699 38.3976 32.0778 38.1673L32.0781 38.1671L78.9588 11.6158L125.17 38.1609L125.17 38.1611C125.601 38.4078 126.138 38.5173 126.657 38.5052C127.176 38.493 127.701 38.3587 128.106 38.0885L127.967 37.8806L128.106 38.0885C128.511 37.8178 128.744 37.4382 128.719 37.0251C128.694 36.6157 128.42 36.2553 127.989 36.0078L127.865 36.2245L127.989 36.0077L80.3786 8.65898C80.3785 8.65895 80.3785 8.65892 80.3784 8.65889C79.9729 8.42502 79.4691 8.3136 78.9756 8.31263C78.4819 8.31165 77.9769 8.42113 77.5687 8.65263Z" fill="#4A60A1" stroke="#4A60A1" stroke-width="0.5"/>
<path d="M39.7422 69.7365H117.694L119.583 68.3129H119.833V68.3118V33.7571C119.833 33.315 119.545 32.9538 119.161 32.7158C118.773 32.4756 118.253 32.3353 117.691 32.3353C117.13 32.3353 116.61 32.4756 116.222 32.7158C115.838 32.9538 115.55 33.315 115.55 33.7571V66.8911H41.8834V32.7032C41.8834 32.2611 41.5954 31.8998 41.2114 31.6619C40.8237 31.4217 40.3037 31.2814 39.7422 31.2814C39.1807 31.2814 38.6607 31.4217 38.273 31.6619C37.889 31.8998 37.601 32.2611 37.601 32.7032V68.3147C37.601 68.7568 37.889 69.1181 38.273 69.356C38.6607 69.5962 39.1807 69.7365 39.7422 69.7365Z" fill="#4A60A1" stroke="#4A60A1" stroke-width="0.5"/>
<path d="M67.8437 46.0176C67.031 45.4622 66.6169 44.8677 66.625 44.2679C66.625 43.3381 67.6147 42.4292 69.4689 41.6562C71.3232 40.8831 73.9587 40.2806 77.0422 39.9248C80.1257 39.569 83.5187 39.4759 86.7921 39.6573C90.0656 39.8387 93.0724 40.2864 95.4324 40.9438C97.7924 41.6012 99.3996 42.4389 100.051 43.3508C100.702 44.2626 100.368 45.2078 99.0905 46.0668C97.8132 46.9258 95.6503 47.66 92.8752 48.1765C90.1002 48.693 86.8376 48.9687 83.5 48.9687C81.3467 48.971 79.2127 48.8557 77.2187 48.6292V48.6292L74.125 49.4911H68.5V51.058H62.875V52.625H53.5V50.0134L67.8437 46.0176Z" stroke="#1E2640" stroke-width="1.5" stroke-linecap="round" stroke-linejoin="round"/>
<path d="M88.1875 43.7455C89.7408 43.7455 91 43.3947 91 42.962C91 42.5293 89.7408 42.1786 88.1875 42.1786C86.6342 42.1786 85.375 42.5293 85.375 42.962C85.375 43.3947 86.6342 43.7455 88.1875 43.7455Z" fill="#1E2640"/>
</svg>
