<svg width="78" height="78" viewBox="0 0 78 78" fill="none" xmlns="http://www.w3.org/2000/svg">
<path d="M68.8087 38.2564H68.7869C68.4913 38.2564 68.2065 38.1439 67.9906 37.9444L55.7392 26.5854C55.2639 26.1446 55.2367 25.4027 55.6757 24.9293C56.1165 24.454 56.8584 24.4268 57.3318 24.8658L69.4581 36.1069C69.7737 36.3173 69.9805 36.6764 69.9805 37.0828C69.9805 37.7322 69.4563 38.2564 68.8087 38.2564ZM45.2563 16.4436C44.9715 16.4436 44.6849 16.3402 44.46 16.1316C40.9536 12.8828 38.4903 10.5972 38.4903 10.5972C38.1728 10.3034 38.0441 9.85896 38.1529 9.43993C38.2617 9.02091 38.5937 8.69803 39.0145 8.59644L39.234 8.54384C39.858 8.3951 40.4856 8.77603 40.6434 9.3964C41.5613 10.2471 43.5403 12.0829 46.0545 14.412C46.5297 14.8528 46.5569 15.5947 46.118 16.0681C45.8858 16.3166 45.572 16.4436 45.2563 16.4436Z" fill="#4A60A1"/>
<path d="M62.9297 69.4896C62.3238 69.4896 61.8105 69.0235 61.7615 68.4103C61.7416 68.1564 61.8032 67.9151 61.9248 67.7138V37.0761C61.9248 36.4285 62.449 35.9043 63.0966 35.9043C63.7442 35.9043 64.2684 36.4285 64.2684 37.0761V68.3051C64.2684 68.9164 63.7986 69.4243 63.1891 69.4733L63.0222 69.486C62.9914 69.4878 62.9605 69.4896 62.9297 69.4896Z" fill="#4A60A1"/>
<path d="M57.6601 25.4301C57.0144 25.4301 56.4883 24.9077 56.4883 24.2601L56.4666 13.926C55.9713 13.7809 55.6158 13.3202 55.6249 12.7796C55.6376 12.132 56.1763 11.6114 56.8185 11.6295L57.6583 11.6441C58.2968 11.6549 58.8084 12.1755 58.8084 12.8141L58.8319 24.2547C58.8338 24.9022 58.3095 25.4283 57.662 25.4301C57.662 25.4301 57.6619 25.4301 57.6601 25.4301Z" fill="#4A60A1"/>
<path d="M56.1821 26.1856C56.1821 26.9713 56.8183 27.6074 57.6039 27.6074C58.3891 27.6074 59.0275 26.9718 59.0275 26.1856V12.6699C59.0275 11.8842 58.3914 11.248 57.6057 11.248H49.0547C48.2691 11.248 47.6329 11.8842 47.6329 12.6699V18.2115C47.6329 18.9971 48.2691 19.6333 49.0547 19.6333C49.8404 19.6333 50.4766 18.9971 50.4766 18.2115V14.0917H56.1821V26.1856Z" fill="#1E2640" stroke="#1E2640" stroke-width="0.5"/>
<path d="M48.1221 68.3132V68.3125V43.2382C48.1221 42.4526 47.4859 41.8164 46.7003 41.8164H31.5283C30.7427 41.8164 30.1065 42.4526 30.1065 43.2382V68.3107C30.1065 69.0963 30.7427 69.7325 31.5283 69.7325C32.314 69.7325 32.9502 69.0963 32.9502 68.3107V44.66H45.2766V68.3125C45.2766 69.0982 45.9128 69.7343 46.6984 69.7343C47.4845 69.7343 48.1199 69.0961 48.1221 68.3132Z" fill="#1E2640" stroke="#1E2640" stroke-width="0.5"/>
<path d="M8.14152 38.0438C8.42128 38.3499 8.80671 38.506 9.19129 38.506C9.53428 38.506 9.87793 38.3827 10.1506 38.1342L10.1508 38.134L39.1058 11.6677L67.6465 38.1273L67.6468 38.1277C68.2231 38.6599 69.1211 38.6272 69.6559 38.0505L69.6559 38.0505C70.1888 37.4758 70.1555 36.5757 69.5791 36.0411L69.5791 36.0411L40.0791 8.69243C39.5372 8.18792 38.6984 8.18611 38.1528 8.68556L8.23174 36.0344L8.2315 36.0346C7.65331 36.5645 7.61073 37.4643 8.14152 38.0438ZM8.14152 38.0438C8.14158 38.0438 8.14165 38.0439 8.14171 38.044L8.32603 37.8751L8.14147 38.0437C8.14148 38.0437 8.1415 38.0438 8.14152 38.0438Z" fill="#4A60A1" stroke="#4A60A1" stroke-width="0.5"/>
<path d="M14.8073 69.7364H63.1074L64.5275 68.3121V33.757C64.5275 32.9713 63.8913 32.3352 63.1056 32.3352C62.32 32.3352 61.6838 32.9713 61.6838 33.757V66.891H16.2291V32.7031C16.2291 31.9174 15.593 31.2812 14.8073 31.2812C14.0217 31.2812 13.3855 31.9174 13.3855 32.7031V68.3146C13.3855 69.1003 14.0217 69.7364 14.8073 69.7364Z" fill="#4A60A1" stroke="#4A60A1" stroke-width="0.5"/>
</svg>
