<svg width="16" height="16" viewBox="0 0 16 16" fill="none" xmlns="http://www.w3.org/2000/svg">
<path d="M4.15984 10.0173C5.16176 10.0173 5.97398 9.2051 5.97398 8.20318C5.97398 7.20125 5.16176 6.38904 4.15984 6.38904C3.15792 6.38904 2.3457 7.20125 2.3457 8.20318C2.3457 9.2051 3.15792 10.0173 4.15984 10.0173Z" stroke="#4A60A1" stroke-width="0.936687" stroke-linecap="round" stroke-linejoin="round"/>
<path d="M10.5095 14.0991C11.5114 14.0991 12.3236 13.2869 12.3236 12.285C12.3236 11.283 11.5114 10.4708 10.5095 10.4708C9.50753 10.4708 8.69531 11.283 8.69531 12.285C8.69531 13.2869 9.50753 14.0991 10.5095 14.0991Z" stroke="#4A60A1" stroke-width="0.936687" stroke-linecap="round" stroke-linejoin="round"/>
<path d="M10.5095 5.93553C11.5114 5.93553 12.3236 5.12331 12.3236 4.12139C12.3236 3.11947 11.5114 2.30725 10.5095 2.30725C9.50753 2.30725 8.69531 3.11947 8.69531 4.12139C8.69531 5.12331 9.50753 5.93553 10.5095 5.93553Z" stroke="#4A60A1" stroke-width="0.936687" stroke-linecap="round" stroke-linejoin="round"/>
<path d="M8.98452 5.10217L5.68506 7.22245" stroke="#4A60A1" stroke-width="0.936687" stroke-linecap="round" stroke-linejoin="round"/>
<path d="M5.68506 9.18396L8.98452 11.3042" stroke="#4A60A1" stroke-width="0.936687" stroke-linecap="round" stroke-linejoin="round"/>
</svg>
