<svg width="16" height="16" viewBox="0 0 16 16" fill="none" xmlns="http://www.w3.org/2000/svg">
<path d="M4.16008 10.0079C5.16201 10.0079 5.97422 9.1957 5.97422 8.19378C5.97422 7.19186 5.16201 6.37964 4.16008 6.37964C3.15816 6.37964 2.34595 7.19186 2.34595 8.19378C2.34595 9.1957 3.15816 10.0079 4.16008 10.0079Z" stroke="#4A60A1" stroke-width="0.936687" stroke-linecap="round" stroke-linejoin="round"/>
<path d="M10.5096 14.0898C11.5115 14.0898 12.3237 13.2775 12.3237 12.2756C12.3237 11.2737 11.5115 10.4615 10.5096 10.4615C9.50765 10.4615 8.69543 11.2737 8.69543 12.2756C8.69543 13.2775 9.50765 14.0898 10.5096 14.0898Z" stroke="#4A60A1" stroke-width="0.936687" stroke-linecap="round" stroke-linejoin="round"/>
<path d="M10.5096 5.92613C11.5115 5.92613 12.3237 5.11391 12.3237 4.11199C12.3237 3.11007 11.5115 2.29785 10.5096 2.29785C9.50765 2.29785 8.69543 3.11007 8.69543 4.11199C8.69543 5.11391 9.50765 5.92613 10.5096 5.92613Z" stroke="#4A60A1" stroke-width="0.936687" stroke-linecap="round" stroke-linejoin="round"/>
<path d="M8.98464 5.09277L5.68518 7.21305" stroke="#4A60A1" stroke-width="0.936687" stroke-linecap="round" stroke-linejoin="round"/>
<path d="M5.68518 9.17456L8.98464 11.2948" stroke="#4A60A1" stroke-width="0.936687" stroke-linecap="round" stroke-linejoin="round"/>
</svg>
