<svg width="16" height="16" viewBox="0 0 16 16" fill="none" xmlns="http://www.w3.org/2000/svg">
<path d="M4.16016 10.0173C5.16208 10.0173 5.9743 9.2051 5.9743 8.20318C5.9743 7.20125 5.16208 6.38904 4.16016 6.38904C3.15824 6.38904 2.34602 7.20125 2.34602 8.20318C2.34602 9.2051 3.15824 10.0173 4.16016 10.0173Z" stroke="#4A60A1" stroke-width="0.936687" stroke-linecap="round" stroke-linejoin="round"/>
<path d="M10.5096 14.0992C11.5116 14.0992 12.3238 13.2869 12.3238 12.285C12.3238 11.2831 11.5116 10.4709 10.5096 10.4709C9.50773 10.4709 8.69551 11.2831 8.69551 12.285C8.69551 13.2869 9.50773 14.0992 10.5096 14.0992Z" stroke="#4A60A1" stroke-width="0.936687" stroke-linecap="round" stroke-linejoin="round"/>
<path d="M10.5096 5.93553C11.5116 5.93553 12.3238 5.12331 12.3238 4.12139C12.3238 3.11947 11.5116 2.30725 10.5096 2.30725C9.50773 2.30725 8.69551 3.11947 8.69551 4.12139C8.69551 5.12331 9.50773 5.93553 10.5096 5.93553Z" stroke="#4A60A1" stroke-width="0.936687" stroke-linecap="round" stroke-linejoin="round"/>
<path d="M8.98464 5.10217L5.68518 7.22245" stroke="#4A60A1" stroke-width="0.936687" stroke-linecap="round" stroke-linejoin="round"/>
<path d="M5.68518 9.18396L8.98464 11.3042" stroke="#4A60A1" stroke-width="0.936687" stroke-linecap="round" stroke-linejoin="round"/>
</svg>
