<svg width="20" height="21" viewBox="0 0 20 21" fill="none" xmlns="http://www.w3.org/2000/svg">
<g clip-path="url(#clip0_1_812)">
<path d="M0 3.3042C0 2.63079 0.225232 2.07523 0.675676 1.63754C1.12612 1.19982 1.71172 0.980972 2.43243 0.980972C3.14029 0.980972 3.71299 1.19645 4.15058 1.62744C4.60102 2.07188 4.82625 2.65099 4.82625 3.36481C4.82625 4.01127 4.60747 4.54998 4.16988 4.98097C3.71944 5.42541 3.12741 5.64763 2.39382 5.64763H2.37452C1.66666 5.64763 1.09396 5.42541 0.656371 4.98097C0.218784 4.53652 0 3.97759 0 3.3042ZM0.250965 20.9809V7.48601H4.53668V20.9809H0.250965ZM6.9112 20.9809H11.1969V13.4456C11.1969 12.9742 11.2484 12.6106 11.3514 12.3547C11.5315 11.8968 11.805 11.5096 12.1718 11.1931C12.5386 10.8766 12.9987 10.7183 13.5521 10.7183C14.9936 10.7183 15.7143 11.7352 15.7143 13.7688V20.9809H20V13.2436C20 11.2503 19.5496 9.73853 18.6486 8.70823C17.7477 7.67793 16.5573 7.16278 15.0772 7.16278C13.417 7.16278 12.1236 7.91025 11.1969 9.4052V9.4456H11.1776L11.1969 9.4052V7.48601H6.9112C6.93693 7.91698 6.94981 9.25704 6.94981 11.5062C6.94981 13.7554 6.93693 16.9136 6.9112 20.9809Z" fill="#4A60A1"/>
</g>
<defs>
<clipPath id="clip0_1_812">
<rect width="20" height="20" fill="white" transform="translate(0 0.981201)"/>
</clipPath>
</defs>
</svg>
